# xmcd
#
# Track frame offsets: 
#        150
#        4448
#        9120
#        12991
#        17244
#        22385
#        27875
#        32850
#        38235
#        44725
#        51579
#        56544
#        61932
#        67141
#        72801
#        77290
#        82023
#        91285
#        101015
#        109061
#        117448
#        122454
#        127932
#        136239
#        144982
#        154528
#        164554
#        178361
#        192590
#        203550
#        214949
#        225074
#        235698
#        242440
#        249481
#        256526
#        263915
#        272622
#
# Disc length: 3754 seconds
#
# Revision: 2
# Processed by: cddbd v1.5.2PL0 Copyright (c) Steve Scherf et al.
# Submitted via: ExactAudioCopyFreeDBPlugin 1.0
#
DISCID=0a0ea826
DTITLE=Manuel Lario - Initiation au Piano Blues
DYEAR=2000
DGENRE=Blues
TTITLE0=Acords enchaînés
TTITLE1=Acordes enchaînés - playback
TTITLE2=Shuffle
TTITLE3=Shuffle - playback
TTITLE4=Acordes de 7ª
TTITLE5=Acordes de 7ª - playback
TTITLE6=Blues en 12 mesures 1
TTITLE7=Blues en 12 mesures 1 - playback
TTITLE8=Blues en 12 mesures 2
TTITLE9=Blues en 12 mesures 2 - playback
TTITLE10=plans rythmiques
TTITLE11=plans rythmiques - playback
TTITLE12=Boogie blues
TTITLE13=Boogie blues - playback
TTITLE14=Mode pentatonique majeur
TTITLE15=Mode pentatonique majeur - playback
TTITLE16=Notes de passage and chromatismes
TTITLE17=Notes de passage and chromatismes - playback
TTITLE18=Blue note
TTITLE19=Blue note - playback
TTITLE20=Improvisation blues
TTITLE21=Improvisation blues - playback
TTITLE22=Accords de 9ª
TTITLE23=Acords de 9ª - playback
TTITLE24=Le blues mineur
TTITLE25=Le blues mineur - playback
TTITLE26=La ballade blues
TTITLE27=La ballade blues - playback
TTITLE28=La grille blues-jazz
TTITLE29=La grille blues-jazz - playback
TTITLE30=La chanson blues
TTITLE31=La chanson blues - playback
TTITLE32=Blues-rock
TTITLE33=Blues-rock - playback
TTITLE34=La main gauche
TTITLE35=La main gauche - playback
TTITLE36=Blues final
TTITLE37=Blues final - playback
EXTD=YEAR: 2000
EXTT0=
EXTT1=
EXTT2=
EXTT3=
EXTT4=
EXTT5=
EXTT6=
EXTT7=
EXTT8=
EXTT9=
EXTT10=
EXTT11=
EXTT12=
EXTT13=
EXTT14=
EXTT15=
EXTT16=
EXTT17=
EXTT18=
EXTT19=
EXTT20=
EXTT21=
EXTT22=
EXTT23=
EXTT24=
EXTT25=
EXTT26=
EXTT27=
EXTT28=
EXTT29=
EXTT30=
EXTT31=
EXTT32=
EXTT33=
EXTT34=
EXTT35=
EXTT36=
EXTT37=
PLAYORDER=
